<?xml version="1.0" encoding="UTF-8"?>
<svg version="1.1" viewBox="0 0 1600 1600" width="1280" height="1280" xmlns="http://www.w3.org/2000/svg">
<path transform="translate(0)" d="m0 0h1600v1600h-1600v-1600z" fill="#FBFDFD"/>
<path transform="translate(863 384)" d="m0 0c2.15 3.44 1.96 6.58 1.56 10.5-0.803 2.71-1.65 5.2-2.69 7.81-9.49 25.5-12.5 51.5-12.6 78.6-6.75e-4 0.753-0.00135 1.51-0.00204 2.28 0.0478 34.1 5.69 67.4 14.3 100 0.222 0.865 0.445 1.73 0.674 2.62 7.17 27.5 16.9 56.2 30.3 81.3 0.996 2.05 0.996 2.05 0.996 4.05 1.65 0.33 3.3 0.66 5 1 0.104-0.719 0.209-1.44 0.316-2.18 3.52-14.5 18.5-26.4 30.6-33.9 11.9-7.15 11.9-7.15 17.7-6.79 3.02 1.05 3.76 2.14 5.41 4.84 0.293 2.19 0.293 2.19 0.188 4.57-0.0255 0.887-0.0511 1.77-0.0774 2.69-0.0363 0.946-0.0727 1.89-0.11 2.87-0.509 28.3 9.55 52.9 23.7 77.1 10.6 18.2 16.8 39.1 20.3 59.8 0.206 1.12 0.413 2.25 0.625 3.4 2.96 18.9 3.03 40.8-0.625 59.6-0.156 0.817-0.312 1.63-0.473 2.47-6.78 34.7-22.5 65.3-46.5 91.3-1.76 1.92-3.43 3.88-5.08 5.89-2.63 3.09-5.54 5.7-8.64 8.32-1.67 1.44-3.29 2.94-4.88 4.46-40.4 38.6-95.2 54.8-149 60.5-1.22 0.146-1.22 0.146-2.47 0.294-9.6 1.05-19.3 0.949-28.9 0.956-0.953 6.75e-4 -1.91 0.00135-2.89 0.00204-74.5-0.0835-142-24.9-196-77.3-26.4-26.9-58.9-74.6-61.2-113 0.261-3.86 1.33-5.26 4.19-7.83 3.24-0.973 5.69-1.62 8.85-0.123 1.95 1.33 3.77 2.75 5.59 4.25 1.31 1.02 2.62 2.04 3.94 3.06 0.623 0.49 1.25 0.979 1.89 1.48 3.1 2.37 6.39 4.35 9.74 6.33-0.193-0.793-0.387-1.59-0.586-2.4-13.4-59.9 2.57-123 30.6-177 0.373-0.724 0.745-1.45 1.13-2.19 11-21.3 24.4-41.6 39.9-59.8 0.674-0.83 0.674-0.83 1.36-1.68 4.17-5.13 4.17-5.13 8.51-5.7 3.12 0.375 3.12 0.375 5.38 2.38 2.93 5.03 4.11 10.2 3.75 16h2v2h2c0.106-1.25 0.211-2.51 0.32-3.8 5.4-47.9 33.9-93.5 64.7-129 0.86-1.05 1.72-2.1 2.58-3.16 1.99-2.34 3.89-4.27 6.23-6.22 2.81-2.39 5.44-4.85 8-7.5 4.74-4.79 9.91-8.95 15.2-13.1 0.977-0.794 1.95-1.59 2.96-2.41 8.12-6.46 16.7-11.9 25.6-17.2 2.45-1.44 4.87-2.91 7.3-4.38 19.5-11.6 87.3-50.3 110-36.6z" fill="#6E34EF"/>
<path transform="translate(863 384)" d="m0 0c2.15 3.44 1.96 6.58 1.56 10.5-0.803 2.71-1.65 5.2-2.69 7.81-9.49 25.5-12.5 51.5-12.6 78.6-6.75e-4 0.753-0.00135 1.51-0.00204 2.28 0.0478 34.1 5.69 67.4 14.3 100 0.222 0.865 0.445 1.73 0.674 2.62 7.17 27.5 16.9 56.2 30.3 81.3 0.996 2.05 0.996 2.05 0.996 4.05 1.65 0.33 3.3 0.66 5 1 0.104-0.719 0.209-1.44 0.316-2.18 3.52-14.5 18.5-26.4 30.6-33.9 11.9-7.15 11.9-7.15 17.7-6.79 3.02 1.05 3.76 2.14 5.41 4.84 0.293 2.19 0.293 2.19 0.188 4.57-0.0255 0.887-0.0511 1.77-0.0774 2.69-0.0363 0.946-0.0727 1.89-0.11 2.87-0.509 28.3 9.55 52.9 23.7 77.1 10.6 18.2 16.8 39.1 20.3 59.8 0.206 1.12 0.413 2.25 0.625 3.4 2.96 18.9 3.03 40.8-0.625 59.6-0.156 0.817-0.312 1.63-0.473 2.47-6.78 34.7-22.5 65.3-46.5 91.3-1.76 1.92-3.43 3.88-5.08 5.89-2.63 3.09-5.54 5.7-8.64 8.32-1.67 1.44-3.29 2.94-4.88 4.46-40.4 38.6-95.2 54.8-149 60.5-1.22 0.146-1.22 0.146-2.47 0.294-9.6 1.05-19.3 0.949-28.9 0.956-0.953 6.75e-4 -1.91 0.00135-2.89 0.00204-74.5-0.0835-142-24.9-196-77.3-26.4-26.9-58.9-74.6-61.2-113 0.261-3.86 1.33-5.26 4.19-7.83 3.24-0.973 5.69-1.62 8.85-0.123 1.95 1.33 3.77 2.75 5.59 4.25 1.31 1.02 2.62 2.04 3.94 3.06 0.623 0.49 1.25 0.979 1.89 1.48 3.1 2.37 6.39 4.35 9.74 6.33-0.193-0.793-0.387-1.59-0.586-2.4-13.4-59.9 2.57-123 30.6-177 0.373-0.724 0.745-1.45 1.13-2.19 11-21.3 24.4-41.6 39.9-59.8 0.674-0.83 0.674-0.83 1.36-1.68 4.17-5.13 4.17-5.13 8.51-5.7 3.12 0.375 3.12 0.375 5.38 2.38 2.93 5.03 4.11 10.2 3.75 16h2v2h2c0.106-1.25 0.211-2.51 0.32-3.8 5.4-47.9 33.9-93.5 64.7-129 0.86-1.05 1.72-2.1 2.58-3.16 1.99-2.34 3.89-4.27 6.23-6.22 2.81-2.39 5.44-4.85 8-7.5 4.74-4.79 9.91-8.95 15.2-13.1 0.977-0.794 1.95-1.59 2.96-2.41 8.12-6.46 16.7-11.9 25.6-17.2 2.45-1.44 4.87-2.91 7.3-4.38 19.5-11.6 87.3-50.3 110-36.6zm-34.3 20.9c-0.862 0.264-1.72 0.527-2.61 0.799-45.9 14.4-87.4 36.5-122 70.8-0.683 0.648-1.37 1.3-2.07 1.96-6.72 6.46-12.3 13.6-17.9 21-0.69 0.906-1.38 1.81-2.09 2.75-9.68 13-18.1 26.5-24.9 41.3-0.288 0.611-0.576 1.22-0.873 1.85-16.9 36-24.3 73.2-27.1 113-0.0893 1.23-0.0893 1.23-0.18 2.49-0.113 1.57-0.222 3.13-0.326 4.7-0.383 5.28-0.383 5.28-1.49 6.4-1.48 0.0982-2.96 0.13-4.44 0.125-0.803 0.00258-1.61 0.00516-2.43 0.00781-2.13-0.133-2.13-0.133-4.13-1.13-0.774-2.36-0.774-2.36-1.52-5.53-0.279-1.17-0.558-2.35-0.845-3.56-0.293-1.27-0.587-2.54-0.889-3.85-0.307-1.3-0.614-2.61-0.922-3.91-0.795-3.38-1.58-6.75-2.36-10.1-0.458-1.98-0.918-3.96-1.38-5.94-1.71-7.36-3.41-14.7-5.09-22.1-18.4 8.47-33 47.2-41 65-0.384 0.833-0.768 1.67-1.16 2.52-0.981 2.15-1.92 4.3-2.84 6.48-0.449 1.06-0.897 2.11-1.36 3.2-5.6 13.6-10 27.4-13.3 41.7-0.19 0.808-0.38 1.62-0.576 2.45-3.73 16.7-5.29 33.2-5.17 50.3 0.00238 0.957 0.00475 1.91 0.0072 2.9 0.0586 15.1 0.944 29.6 4.43 44.4 0.181 0.781 0.363 1.56 0.55 2.37 1.27 5.35 2.74 10.6 4.55 15.8 1.09 3.43 1.17 6.26 0.898 9.84-2 2-2 2-4.94 2.56-8.84-0.257-17.5-9.25-24.1-14.6-0.99 0.66-1.98 1.32-3 2 2.34 8.18 6.1 15.4 9.98 23 0.946 1.87 1.86 3.75 2.75 5.64 21.1 44.2 61.2 78.6 105 98.5 1.65 0.75 3.28 1.54 4.91 2.33 23.1 11.2 49.7 17.1 75.1 19.6 1.65 0.162 1.65 0.162 3.33 0.328 35.3 3.29 71.1 1.79 106-6.33 1.28-0.299 1.28-0.299 2.59-0.604 30.3-7.24 60.2-20.1 84.5-39.9 1.93-1.56 3.9-3.02 5.9-4.48 6.44-4.83 12.5-10 17.5-16.3 2.03-2.38 4.26-4.54 6.48-6.74 7.87-8.01 14.1-16.5 20-26 0.358-0.571 0.717-1.14 1.09-1.73 12.3-19.9 20.5-43 22.9-66.3 0.164-1.5 0.164-1.5 0.332-3.04 3.66-39.4-5.95-75-24.3-110-10.3-19.5-21.4-41.5-21.1-64.3 0.00902-0.781 0.018-1.56 0.0273-2.37 0.0174-0.87 0.0174-0.87 0.0352-1.76-0.99-0.33-1.98-0.66-3-1-4.32 2.44-7.64 5.38-11 9-0.461 0.456-0.923 0.913-1.4 1.38-11.1 11.7-14.8 28.1-16.6 43.6-1.6 0.0271-3.21 0.0464-4.81 0.0625-1.34 0.0174-1.34 0.0174-2.71 0.0352-2.48-0.0977-2.48-0.0977-5.48-1.1-1.01-2.2-1.01-2.2-2-5-0.929-1.95-1.88-3.88-2.84-5.81-7.95-16.1-15.2-32.4-21.9-49.1-1.04-2.6-2.11-5.2-3.19-7.79-28.3-68.8-40.9-149-23.6-222 0.953-4.17 1.77-8.36 2.59-12.6-5.4-0.336-9.79 0.859-14.9 2.44z" fill="#000002"/>
<path transform="translate(733,694)" d="m0 0c4.47 1.42 6.99 3.63 10.3 6.95 0.487 0.489 0.974 0.977 1.48 1.48 1.03 1.03 2.05 2.07 3.07 3.11 1.54 1.57 3.08 3.13 4.63 4.68 5.38 5.42 10.6 10.9 15.5 16.8 0.525 0.623 1.05 1.25 1.59 1.89 10.9 13.1 20.8 26.5 29.4 41.1 0.986 1.65 0.986 1.65 1.99 3.33 9.52 16.2 16.8 33 21.7 51.2 0.203 0.743 0.405 1.49 0.614 2.25 3 11.6 4.06 22.9 4.01 34.9-0.00737 1.97-0.00737 1.97-0.0149 3.99-0.366 30.5-10.9 63.8-32.3 86.3-11.4 10.5-22.2 14.6-37.7 14.2-13.8-1.03-24.7-6.68-34.1-16.7-8.24-9.86-9.22-20.1-8.17-32.6 0.833-4.58 2.23-8.7 4-13 0.371-0.904 0.371-0.904 0.749-1.83 4.79-11.3 11.8-20.4 19.5-29.9 17.8-22.4 28.4-45.4 28.2-74.4-0.00337-0.671-0.00675-1.34-0.0102-2.03-0.26-36-15.6-69-36.4-97.8 0.66-1.32 1.32-2.64 2-4z" fill="#FBFDFD"/>
</svg>
